<?xml version="1.0" encoding="UTF-8"?>
<svg id="Layer_2" data-name="Layer 2" xmlns="http://www.w3.org/2000/svg" viewBox="0 0 174.8 68.46">
  <defs>
    <style>
      .cls-1 {
        fill: #fff;
      }
    </style>
  </defs>
  <g id="V3">
    <g>
      <path class="cls-1" d="M0,68.46h167.62V.14H0v68.32ZM1.18,1.32h165.25v65.96H1.18V1.32Z"/>
      <path class="cls-1" d="M101.29,37.33c1.41-.67,2.48-1.57,3.2-2.72.72-1.15,1.09-2.45,1.09-3.92,0-1.36-.29-2.53-.86-3.52-.58-.99-1.32-1.75-2.25-2.3-.92-.55-1.91-.85-2.96-.89v-.27c.96-.22,1.82-.58,2.57-1.1.75-.52,1.34-1.18,1.77-2,.43-.81.65-1.76.65-2.84,0-1.39-.34-2.61-1.03-3.68s-1.71-1.9-3.06-2.5-3.05-.9-5.09-.9h-11.07v27.64h11.81c2.07,0,3.81-.33,5.22-1ZM90.1,15.41h4.44c1.3,0,2.3.31,3,.92.71.61,1.06,1.42,1.06,2.42,0,.73-.18,1.35-.55,1.88-.36.52-.86.92-1.48,1.21s-1.34.42-2.14.42h-4.33v-6.84ZM90.1,33.55v-7.34h4.9c.94,0,1.74.17,2.42.5.68.33,1.2.79,1.57,1.38.37.58.55,1.26.55,2.02,0,1.04-.37,1.88-1.12,2.5s-1.93.94-3.56.94h-4.76Z"/>
      <path class="cls-1" d="M115.22,37.03c1.95,1.12,4.16,1.67,6.61,1.67s4.64-.56,6.59-1.67c1.96-1.11,3.5-2.72,4.64-4.84,1.14-2.11,1.71-4.68,1.71-7.69s-.57-5.58-1.71-7.69c-1.14-2.11-2.69-3.73-4.64-4.84-1.96-1.11-4.15-1.67-6.59-1.67s-4.66.56-6.61,1.67c-1.95,1.11-3.5,2.72-4.63,4.84-1.13,2.11-1.7,4.68-1.7,7.69s.57,5.56,1.7,7.68c1.13,2.11,2.68,3.73,4.63,4.84ZM115.68,19.57c.58-1.34,1.4-2.36,2.45-3.05,1.05-.69,2.29-1.04,3.7-1.04s2.64.35,3.7,1.04c1.05.69,1.87,1.71,2.45,3.05.58,1.34.87,2.99.87,4.94s-.29,3.6-.87,4.94c-.58,1.34-1.4,2.36-2.45,3.05-1.05.69-2.29,1.04-3.7,1.04s-2.64-.35-3.7-1.04c-1.05-.69-1.87-1.71-2.45-3.05-.58-1.34-.87-2.99-.87-4.94s.29-3.6.87-4.94Z"/>
      <polygon class="cls-1" points="142.19 38.33 147.86 28.89 148.08 28.89 153.74 38.33 160.46 38.33 151.84 24.51 160.27 10.69 153.68 10.69 148.08 20.11 147.86 20.11 142.29 10.69 135.66 10.69 144.15 24.51 135.5 38.33 142.19 38.33"/>
      <polygon class="cls-1" points="24.82 35.1 11.97 35.1 11.97 10.43 8.63 10.43 8.63 38.07 24.82 38.07 24.82 35.1"/>
      <path class="cls-1" d="M41.44,25.27c-.36.21-.94.35-1.73.44-.79.09-1.81.21-3.07.37-.96.13-1.92.29-2.87.51-.95.21-1.81.53-2.6.95-.78.42-1.41,1-1.88,1.75-.47.74-.7,1.71-.7,2.89,0,1.35.31,2.5.94,3.45s1.48,1.67,2.55,2.17c1.07.5,2.26.75,3.58.75,1.21,0,2.23-.18,3.06-.54.84-.36,1.51-.8,2.01-1.31s.86-.99,1.08-1.44h.16v2.81h3.18v-13.66c0-1.65-.27-2.96-.81-3.94-.54-.98-1.22-1.71-2.03-2.2-.81-.49-1.66-.81-2.52-.96s-1.63-.24-2.3-.24c-1.04,0-2.1.14-3.18.42s-2.06.78-2.97,1.48-1.63,1.69-2.17,2.95l3.02,1.08c.35-.76.96-1.47,1.82-2.13.86-.67,2.06-1,3.58-1s2.56.37,3.29,1.11c.72.74,1.09,1.77,1.09,3.1v.11c0,.51-.18.87-.55,1.08ZM41.99,30.56c0,.86-.22,1.69-.67,2.47-.45.78-1.1,1.42-1.97,1.92s-1.93.74-3.19.74-2.31-.28-3.14-.84c-.82-.56-1.24-1.4-1.24-2.5,0-.81.22-1.45.65-1.92s1.01-.83,1.73-1.07c.71-.24,1.49-.41,2.31-.52.34-.04.79-.1,1.34-.17.55-.07,1.12-.15,1.71-.24.59-.09,1.11-.21,1.57-.34.45-.13.75-.28.88-.44v2.92Z"/>
      <polygon class="cls-1" points="58.83 38.07 63.36 22.14 63.68 22.14 68.22 38.07 71.35 38.07 77.66 17.34 74.32 17.34 69.84 33.15 69.62 33.15 65.25 17.34 61.85 17.34 57.42 33.21 57.21 33.21 52.73 17.34 49.38 17.34 55.7 38.07 58.83 38.07"/>
      <rect class="cls-1" x="8.16" y="46.89" width="153.65" height="1.22"/>
      <polygon class="cls-1" points="170 .27 170.79 .27 170.79 2.5 171.09 2.5 171.09 .27 171.88 .27 171.88 0 170 0 170 .27"/>
      <polygon class="cls-1" points="174.44 0 173.59 2.08 173.56 2.08 172.71 0 172.35 0 172.35 2.5 172.63 2.5 172.63 .6 172.66 .6 173.44 2.5 173.71 2.5 174.5 .6 174.52 .6 174.52 2.5 174.8 2.5 174.8 0 174.44 0"/>
      <polygon class="cls-1" points="43.42 52.81 42.37 52.81 42.37 61.53 47.48 61.53 47.48 60.6 43.42 60.6 43.42 52.81"/>
      <path class="cls-1" d="M53.01,55.28c-.26-.15-.52-.25-.8-.3-.27-.05-.52-.07-.73-.07-.33,0-.66.04-1,.13-.34.09-.65.25-.94.47-.29.22-.51.53-.68.93l.96.34c.11-.24.3-.46.58-.67.27-.21.65-.31,1.13-.31s.81.12,1.04.35.34.56.34.98v.03c0,.16-.06.28-.17.34-.11.06-.3.11-.54.14-.25.03-.57.07-.97.12-.3.04-.61.09-.91.16-.3.07-.57.17-.82.3-.25.13-.45.32-.59.55s-.22.54-.22.91c0,.43.1.79.3,1.09.2.3.47.53.81.69.34.16.71.24,1.13.24.38,0,.7-.06.97-.17.26-.11.48-.25.64-.41.16-.16.27-.31.34-.46h.05v.89h1.01v-4.31c0-.52-.08-.93-.26-1.24-.17-.31-.38-.54-.64-.69ZM52.9,59.16c0,.27-.07.53-.21.78s-.35.45-.62.6-.61.23-1.01.23-.73-.09-.99-.27c-.26-.18-.39-.44-.39-.79,0-.26.07-.46.21-.61s.32-.26.54-.34c.23-.08.47-.13.73-.16.11-.01.25-.03.42-.05.17-.02.36-.05.54-.08.19-.03.35-.06.49-.11.14-.04.24-.09.28-.14v.92Z"/>
      <polygon class="cls-1" points="61.7 59.98 61.63 59.98 60.25 54.99 59.17 54.99 57.78 60 57.71 60 56.29 54.99 55.24 54.99 57.23 61.53 58.22 61.53 59.65 56.5 59.75 56.5 61.18 61.53 62.17 61.53 64.17 54.99 63.11 54.99 61.7 59.98"/>
      <path class="cls-1" d="M67.78,52.4c-.31,0-.61.06-.89.19s-.51.31-.69.56c-.18.25-.26.56-.26.94v.9h-1.06v.85h1.06v5.69h1.01v-5.69h1.47v-.85h-1.47v-.67c0-.32.07-.57.22-.74.15-.17.39-.25.72-.25.15,0,.26.01.35.04.09.03.16.05.21.06l.29-.87c-.08-.03-.19-.07-.35-.11s-.36-.06-.61-.06Z"/>
      <path class="cls-1" d="M70.34,52.53c-.2,0-.36.07-.5.2-.14.13-.21.29-.21.48s.07.35.21.48c.14.13.31.2.5.2s.36-.07.5-.2c.14-.13.21-.29.21-.48s-.07-.35-.21-.48c-.14-.13-.31-.2-.5-.2Z"/>
      <rect class="cls-1" x="69.83" y="54.99" width="1" height="6.55"/>
      <path class="cls-1" d="M75.42,54.89c-.39,0-.74.1-1.06.3-.31.2-.53.46-.65.79h-.07v-.99h-.97v6.55h1v-4.14c0-.3.07-.56.22-.79s.34-.41.59-.55c.25-.13.53-.2.85-.2.13,0,.26,0,.38.03s.2.03.23.04v-1.02c-.06,0-.14,0-.25-.01-.11,0-.2,0-.28,0Z"/>
      <path class="cls-1" d="M83.74,54.9c-.47,0-.87.1-1.21.3-.34.2-.59.47-.75.81h-.07c-.16-.35-.39-.62-.67-.82-.29-.19-.65-.29-1.08-.29s-.79.1-1.1.29c-.3.19-.52.47-.66.82h-.09v-1.02h-.97v6.55h1v-4.09c0-.32.07-.6.21-.85s.32-.44.55-.58c.23-.14.47-.21.73-.21.38,0,.69.11.93.34.24.23.36.53.36.9v4.48h1.02v-4.26c0-.42.13-.77.38-1.05.25-.28.61-.42,1.07-.42.36,0,.67.1.93.31.26.21.4.55.4,1.04v4.38h1.01v-4.38c0-.77-.19-1.34-.56-1.7s-.85-.55-1.44-.55Z"/>
      <rect class="cls-1" x="90.95" y="54.99" width="1" height="6.55"/>
      <path class="cls-1" d="M91.46,52.53c-.2,0-.36.07-.5.2-.14.13-.21.29-.21.48s.07.35.21.48c.14.13.31.2.5.2s.36-.07.5-.2c.14-.13.21-.29.21-.48s-.07-.35-.21-.48c-.14-.13-.31-.2-.5-.2Z"/>
      <path class="cls-1" d="M97.92,55.17c-.33-.18-.72-.27-1.16-.27-.5,0-.9.1-1.21.3s-.54.47-.7.8h-.09v-1.02h-.97v6.55h1v-3.94c0-.38.07-.7.22-.97s.34-.47.59-.61c.25-.14.54-.21.86-.21.47,0,.83.14,1.1.43.27.29.4.69.4,1.2v4.09h1.01v-4.16c0-.56-.09-1.02-.28-1.38-.18-.36-.44-.64-.78-.82Z"/>
      <path class="cls-1" d="M108.22,55.28c-.26-.15-.52-.25-.8-.3-.27-.05-.52-.07-.73-.07-.33,0-.66.04-1,.13-.34.09-.65.25-.94.47-.29.22-.51.53-.68.93l.96.34c.11-.24.3-.46.58-.67.27-.21.65-.31,1.13-.31s.81.12,1.04.35.34.56.34.98v.03c0,.16-.06.28-.17.34-.11.06-.3.11-.54.14-.25.03-.57.07-.97.12-.3.04-.61.09-.91.16-.3.07-.57.17-.82.3-.25.13-.45.32-.59.55s-.22.54-.22.91c0,.43.1.79.3,1.09.2.3.47.53.81.69.34.16.71.24,1.13.24.38,0,.7-.06.97-.17.26-.11.48-.25.64-.41.16-.16.27-.31.34-.46h.05v.89h1.01v-4.31c0-.52-.08-.93-.26-1.24-.17-.31-.38-.54-.64-.69ZM108.11,59.16c0,.27-.07.53-.21.78s-.35.45-.62.6-.61.23-1.01.23-.73-.09-.99-.27c-.26-.18-.39-.44-.39-.79,0-.26.07-.46.21-.61s.32-.26.54-.34c.23-.08.47-.13.73-.16.11-.01.25-.03.42-.05.17-.02.36-.05.54-.08.19-.03.35-.06.49-.11.14-.04.24-.09.28-.14v.92Z"/>
      <path class="cls-1" d="M118.91,55.32c-.42-.28-.91-.41-1.46-.41-.43,0-.76.07-1.01.21-.25.14-.44.3-.57.48-.13.18-.24.32-.31.44h-.08v-3.22h-1.01v8.73h.97v-1.01h.12c.07.12.18.27.32.45.14.18.33.34.58.48s.59.21,1.01.21c.55,0,1.03-.14,1.44-.42.42-.28.75-.67.98-1.18.24-.51.35-1.11.35-1.8s-.12-1.28-.35-1.79c-.24-.51-.56-.9-.98-1.17ZM119.03,59.53c-.14.38-.36.68-.64.9-.28.22-.63.33-1.05.33s-.75-.11-1.02-.32-.49-.51-.63-.88c-.14-.38-.22-.81-.22-1.31s.07-.92.21-1.28c.14-.37.35-.65.63-.86.28-.21.62-.31,1.03-.31s.78.11,1.06.33c.28.22.49.51.63.88.14.37.21.79.21,1.25s-.07.89-.21,1.27Z"/>
      <path class="cls-1" d="M125.99,55.32c-.44-.28-.96-.42-1.55-.42s-1.11.14-1.55.42-.79.68-1.04,1.19c-.25.51-.37,1.1-.37,1.79s.12,1.27.37,1.77c.25.51.6.9,1.04,1.18s.96.42,1.55.42,1.11-.14,1.55-.42.79-.67,1.04-1.18c.25-.51.37-1.1.37-1.77s-.12-1.28-.37-1.79c-.25-.51-.6-.9-1.04-1.19ZM126.19,59.51c-.14.38-.35.68-.64.91s-.66.35-1.11.35-.82-.12-1.11-.35-.5-.53-.64-.91c-.14-.38-.21-.78-.21-1.22s.07-.85.21-1.22c.14-.38.35-.68.64-.92s.66-.35,1.11-.35.82.12,1.11.35.5.54.64.92c.14.38.21.79.21,1.22s-.07.84-.21,1.22Z"/>
      <polygon class="cls-1" points="132.83 54.99 131.26 57.66 129.69 54.99 128.53 54.99 130.61 58.26 128.53 61.53 129.69 61.53 131.26 58.99 132.83 61.53 133.99 61.53 131.87 58.26 133.99 54.99 132.83 54.99"/>
    </g>
  </g>
</svg>